<svg width="512" height="512" viewBox="0 0 512 512" fill="none" xmlns="http://www.w3.org/2000/svg">
  <!-- Background circle -->
  <circle cx="256" cy="256" r="256" fill="#007bff"/>
  
  <!-- Notebook/Caderninho -->
  <rect x="140" y="120" width="232" height="280" rx="12" fill="white"/>
  <rect x="140" y="120" width="232" height="40" rx="12" fill="#28a745"/>
  <rect x="140" y="160" width="232" height="240" rx="0" fill="white"/>
  
  <!-- Spiral binding -->
  <circle cx="180" cy="140" r="8" fill="white"/>
  <circle cx="220" cy="140" r="8" fill="white"/>
  <circle cx="260" cy="140" r="8" fill="white"/>
  <circle cx="300" cy="140" r="8" fill="white"/>
  <circle cx="332" cy="140" r="8" fill="white"/>
  
  <!-- Lines on the page -->
  <line x1="160" y1="200" x2="352" y2="200" stroke="#e1e5e9" stroke-width="2"/>
  <line x1="160" y1="230" x2="352" y2="230" stroke="#e1e5e9" stroke-width="2"/>
  <line x1="160" y1="260" x2="352" y2="260" stroke="#e1e5e9" stroke-width="2"/>
  <line x1="160" y1="290" x2="352" y2="290" stroke="#e1e5e9" stroke-width="2"/>
  <line x1="160" y1="320" x2="352" y2="320" stroke="#e1e5e9" stroke-width="2"/>
  
  <!-- Dollar sign -->
  <circle cx="256" cy="300" r="40" fill="#28a745"/>
  <text x="256" y="315" text-anchor="middle" fill="white" font-family="Arial, sans-serif" font-size="36" font-weight="bold">$</text>
  
  <!-- Chart/Graph icon -->
  <rect x="180" y="340" width="8" height="20" fill="#007bff"/>
  <rect x="200" y="330" width="8" height="30" fill="#007bff"/>
  <rect x="220" y="320" width="8" height="40" fill="#007bff"/>
  <rect x="240" y="310" width="8" height="50" fill="#007bff"/>
</svg>